<?xml version="1.0" standalone="no"?><!DOCTYPE svg PUBLIC "-//W3C//DTD SVG 1.1//EN" "http://www.w3.org/Graphics/SVG/1.1/DTD/svg11.dtd"><svg t="1586003828538" class="icon" viewBox="0 0 1026 1024" version="1.1" xmlns="http://www.w3.org/2000/svg" p-id="23593" xmlns:xlink="http://www.w3.org/1999/xlink" width="128.25" height="128"><defs><style type="text/css"></style></defs><path d="M512 663.118943c29.321586 0 54.132159-11.277533 54.132159-24.810573 0-13.53304-24.810573-24.810573-54.132159-24.810573-29.321586 0-54.132159 11.277533-54.132159 24.810573 0 13.53304 24.810573 24.810573 54.132159 24.810573zM534.555066 755.594714c-6.76652 6.76652-11.277533 9.022026-22.555066 9.022026s-15.788546-6.76652-22.555066-9.022026c-6.76652-6.76652-13.53304-15.788546-29.321586-15.788547-15.788546 0-22.555066 6.76652-29.321586 15.788547-6.76652 6.76652-11.277533 9.022026-22.555066 9.022026s-15.788546-6.76652-22.555066-9.022026c-6.76652-6.76652-13.53304-15.788546-29.321586-15.788547-2.255507 0-4.511013 4.511013-4.511013 6.76652 0 4.511013 2.255507 6.76652 4.511013 6.76652 11.277533 0 15.788546 6.76652 22.555066 11.277533 6.76652 6.76652 13.53304 15.788546 29.321586 15.788546 15.788546 0 22.555066-6.76652 29.321586-15.788546 6.76652-6.76652 11.277533-11.277533 22.555066-11.277533s15.788546 6.76652 22.555066 11.277533c6.76652 6.76652 13.53304 15.788546 29.321586 15.788546 15.788546 0 22.555066-6.76652 29.321586-15.788546 6.76652-6.76652 11.277533-11.277533 22.555066-11.277533s15.788546 6.76652 22.555066 11.277533c6.76652 6.76652 13.53304 15.788546 29.321586 15.788546 15.788546 0 22.555066-6.76652 29.321586-15.788546 6.76652-6.76652 11.277533-11.277533 22.555066-11.277533 2.255507 0 4.511013-4.511013 4.511013-6.76652 0-4.511013-2.255507-6.76652-4.511013-6.76652-13.53304 0-22.555066 6.76652-29.321586 15.788547-6.76652 6.76652-11.277533 9.022026-22.555066 9.022026s-15.788546-6.76652-22.555066-9.022026c-6.76652-6.76652-13.53304-15.788546-29.321586-15.788547-15.788546 0-22.555066 6.76652-29.321586 15.788547z" fill="#dbdbdb" p-id="23594"></path><path d="M512 0C230.061674 0 0 230.061674 0 512s230.061674 512 512 512 512-230.061674 512-512S793.938326 0 512 0zM261.638767 631.54185c-9.022026-6.76652-11.277533-20.299559-2.255507-33.832599l15.788546-22.555066c-2.255507-6.76652-4.511013-11.277533-6.76652-20.299559-2.255507-33.832599 22.555066-63.154185 56.387666-65.409692 33.832599-2.255507 63.154185 22.555066 65.409691 56.387665 2.255507 33.832599-22.555066 63.154185-56.387665 65.409692-9.022026 0-18.044053 0-27.066079-4.511013l-13.53304 20.299559c-9.022026 11.277533-22.555066 13.53304-31.577092 4.511013z m532.299559 33.832599c-9.022026 9.022026-22.555066 6.76652-31.577093-4.511013l-45.110132-54.132158c-9.022026 4.511013-18.044053 4.511013-27.066079 4.511013-33.832599-2.255507-58.643172-31.577093-58.643172-63.154185 2.255507-33.832599 29.321586-58.643172 63.154185-56.387665 33.832599 2.255507 58.643172 29.321586 56.387665 63.154185 0 9.022026-2.255507 13.53304-4.511013 20.299559l47.365639 56.387665c11.277533 13.53304 6.76652 27.066079 0 33.832599z m-56.387665-193.973568s-27.066079-13.53304-51.876652-13.53304c-27.066079 0-54.132159 11.277533-74.431718 31.577093-20.299559 20.299559-31.577093 45.110132-31.577093 74.431718 0 42.854626 24.810573 78.942731 63.154185 92.475771 0 0 15.788546 6.76652 22.555066 9.022026 45.110132 20.299559 74.431718 54.132159 74.431718 87.964758 0 38.343612-31.577093 72.176211-81.198237 90.220264-45.110132 11.277533-92.475771 20.299559-146.60793 20.29956h-4.511013c-51.876652 0-99.242291-6.76652-146.60793-20.29956-49.621145-20.299559-81.198238-54.132159-81.198238-90.220264s29.321586-67.665198 74.431718-87.964758c6.76652-4.511013 22.555066-9.022026 22.555067-9.022026 36.088106-15.788546 63.154185-54.132159 63.154185-92.475771 0-27.066079-11.277533-54.132159-31.577093-74.431718-20.299559-20.299559-45.110132-31.577093-74.431718-31.577093-24.810573 0-49.621145 13.53304-51.876652 13.53304-81.198238 40.599119-139.84141 115.030837-157.885463 205.251101-6.76652-24.810573-13.53304-51.876652-13.533039-81.198238 0-11.277533 2.255507-22.555066 2.255506-33.832599 38.343612 29.321586 85.709251-126.30837 87.964758-137.585903 13.53304-40.599119 36.088106-78.942731 63.154185-110.519823-11.277533-6.76652-22.555066-13.53304-29.321586-24.810573-24.810573-36.088106-22.555066-108.264317-4.511013-124.052864 20.299559-15.788546 90.220264 2.255507 117.286344 38.343613 6.76652 9.022026 13.53304 20.299559 15.788546 33.832599 45.110132-22.555066 92.475771-36.088106 144.352423-36.088106h2.255506c56.387665 0 106.008811 13.53304 151.118943 38.343612 2.255507-13.53304 9.022026-27.066079 15.788546-38.343612 27.066079-36.088106 96.986784-54.132159 117.286344-38.343612 20.299559 15.788546 24.810573 87.964758-4.511013 124.052863-9.022026 13.53304-22.555066 22.555066-36.088106 29.321586 27.066079 31.577093 47.365639 69.920705 60.898678 108.264317 2.255507 9.022026 51.876652 166.907489 87.964758 137.585903 2.255507 11.277533 2.255507 22.555066 2.255507 33.832599 0 27.066079-6.76652 54.132159-18.044053 81.198238-9.022026-90.220264-69.920705-164.651982-148.863436-205.251101z" fill="#dbdbdb" p-id="23595"></path></svg>