<?xml version="1.0" standalone="no"?><!DOCTYPE svg PUBLIC "-//W3C//DTD SVG 1.1//EN" "http://www.w3.org/Graphics/SVG/1.1/DTD/svg11.dtd"><svg t="1586002558876" class="icon" viewBox="0 0 1024 1024" version="1.1" xmlns="http://www.w3.org/2000/svg" p-id="9990" xmlns:xlink="http://www.w3.org/1999/xlink" width="128" height="128"><defs><style type="text/css"></style></defs><path d="M977.92 994.816c-53.76 50.688-153.088 32.768-222.72-40.448l-140.288-147.968-13.312-148.992L481.28 530.944c-13.312 5.12-26.112 7.168-36.864 5.632l-75.264 71.68c24.576 27.136 24.064 69.632-2.048 95.744-27.136 27.136-71.168 27.136-98.304 0l-235.52-235.52c-27.136-27.136-27.136-71.168 0-98.304 27.136-27.136 71.168-27.136 98.304 0L399.36 116.224c-24.064-27.136-23.552-69.12 3.072-95.232 27.136-27.136 71.168-27.136 98.304 0L735.744 256c27.136 27.136 27.136 71.168 0 98.304-27.136 27.136-71.168 27.136-98.304 0l-0.512-0.512-68.096 64.512c2.048 17.92-6.656 41.984-24.576 64.512l114.688 120.832 150.016 18.944 140.288 147.968c69.632 72.704 82.432 173.056 28.672 224.256z" fill="#dbdbdb" p-id="9991"></path></svg>