<?xml version="1.0" standalone="no"?><!DOCTYPE svg PUBLIC "-//W3C//DTD SVG 1.1//EN" "http://www.w3.org/Graphics/SVG/1.1/DTD/svg11.dtd"><svg t="1586001926921" class="icon" viewBox="0 0 1024 1024" version="1.1" xmlns="http://www.w3.org/2000/svg" p-id="2431" xmlns:xlink="http://www.w3.org/1999/xlink" width="128" height="128"><defs><style type="text/css"></style></defs><path d="M941.930572 598.20563c-37.357037 36.750222-83.930074 60.22637-135.130074 66.104889-58.330074 91.287704-156.330667 154.017185-263.964445 165.774222v98.228148h168.277334c21.200593 0 39.063704 17.408 39.063703 39.215407 0 21.200593-17.863111 39.253333-39.063703 39.253334H296.279609c-21.200593 0-38.608593-18.052741-38.608593-39.253334 0-21.617778 17.445926-39.215407 38.608593-39.215407h168.504889v-98.228148c-108.088889-11.757037-205.63437-74.486519-263.964445-165.736297a227.290074 227.290074 0 0 1-135.547259-66.142814A227.252148 227.252148 0 0 1 0.002276 438.158222v-216.557037c0-21.428148 17.21837-38.836148 38.418963-38.836148h105.09274V38.836148C143.513979 17.21837 160.73235 0 182.122572 0h642.503111c22.034963 0 39.063704 17.21837 39.063704 38.836148v143.928889h104.675555c21.390222 0 38.836148 17.445926 38.608593 38.798222v216.557037a228.010667 228.010667 0 0 1-65.042963 160.085334zM64.552201 253.458963v191.601778c0 40.922074 26.851556 84.081778 53.892741 111.767703 10.733037 11.529481 24.841481 21.921185 38.912 29.05126-9.253926-31.857778-13.008593-78.734222-13.842963-111.881482V253.496889H64.552201z m799.326815 220.956444c-0.644741 32.95763-9.02637 78.203259-18.24237 109.871408 13.008593-6.523259 41.604741-28.672 52.527407-39.139556 26.43437-27.685926 52.565333-63.070815 52.565334-103.992889V254.065778h-86.850371v220.349629zM691.012646 323.318519l-116.963556 0.227555-36.029629-112.488296a17.066667 17.066667 0 0 0-10.277926-10.543408 16.687407 16.687407 0 0 0-20.593778 10.543408l-36.02963 112.488296-116.963555-0.227555a15.36 15.36 0 0 0-13.084445 6.78874 16.19437 16.19437 0 0 0 3.489186 22.679704l94.966518 69.480296-36.257185 112.526222a16.990815 16.990815 0 0 0 2.123852 14.942815 14.715259 14.715259 0 0 0 10.505481 6.33363 16.687407 16.687407 0 0 0 11.946667-2.806519l94.511407-69.707851 93.790815 69.25274a16.118519 16.118519 0 0 0 19.418074 0.455111 16.687407 16.687407 0 0 0 6.068148-18.469926l-36.257185-112.526222 94.283852-69.025185a16.990815 16.990815 0 0 0 7.205926-13.539555 15.928889 15.928889 0 0 0-4.626963-11.45363 14.411852 14.411852 0 0 0-11.226074-4.93037z" p-id="2432" fill="#e6e6e6"></path></svg>