<?xml version="1.0" standalone="no"?><!DOCTYPE svg PUBLIC "-//W3C//DTD SVG 1.1//EN" "http://www.w3.org/Graphics/SVG/1.1/DTD/svg11.dtd"><svg t="1586430706684" class="icon" viewBox="0 0 1024 1024" version="1.1" xmlns="http://www.w3.org/2000/svg" p-id="4946" xmlns:xlink="http://www.w3.org/1999/xlink" width="128" height="128"><defs><style type="text/css"></style></defs><path d="M494.445714 667.745524c28.135619-53.052952 70.022095-112.493714 165.156572-156.525714 7.070476-1.852952-24.185905-21.601524-35.791238-26.477715-24.771048-10.288762-42.76419-14.774857-61.44-16.579047 90.160762-36.571429 153.6-123.416381 153.6-224.889905C715.971048 108.982857 604.647619 0 467.577905 0 330.459429 0 219.233524 108.982857 219.233524 243.321905c0 108.544 72.704 200.557714 173.056 231.862857C182.954667 513.170286 24.380952 693.00419 24.380952 909.06819c0 19.309714 1.219048 38.229333 3.705905 56.80762h92.16l347.331048-3.413334a6.339048 6.339048 0 0 0 6.436571-6.290286c0.146286-41.886476 3.754667-138.678857 1.609143-188.074666a229.180952 229.180952 0 0 1 18.870857-100.352zM999.619048 812.860952v-72.655238l-65.145905-13.019428a185.392762 185.392762 0 0 0-19.358476-45.738667l36.815238-54.223238-0.146286-0.146286-52.272762-51.2-0.097524-0.097524-55.393523 36.035048a194.80381 194.80381 0 0 0-46.56762-18.919619l-13.263238-63.975619h-74.166857l-13.263238 63.878095c-16.481524 4.33981-32.085333 10.630095-46.567619 18.870857l-55.393524-36.035047-0.097524 0.146285-52.272761 51.2-0.146286 0.097524 36.815238 54.272a185.392762 185.392762 0 0 0-19.358476 45.738667l-65.145905 12.970667v72.655238l65.145905 13.019428c4.486095 16.091429 10.922667 31.548952 19.358476 45.738667l-36.815238 54.223238 0.146286 0.146286 52.272761 51.297524 0.097524 0.146285 55.393524-36.083809c14.482286 8.289524 30.086095 14.628571 46.567619 19.017143L709.973333 1024h74.166857l13.263239-63.829333c16.481524-4.388571 32.085333-10.678857 46.567619-18.919619l55.393523 36.035047 0.097524-0.146285 52.272762-51.2 0.146286-0.097524-36.815238-54.223238c8.43581-14.238476 14.872381-29.500952 19.358476-45.787429L999.619048 812.860952z m-252.440381 49.493334c-48.420571 0-87.722667-38.521905-87.722667-86.016 0-47.445333 39.302095-86.016 87.722667-86.016 48.420571 0 87.673905 38.570667 87.673904 86.016 0 47.689143-39.107048 86.016-87.673904 86.016z" fill="#cdcdcd" p-id="4947"></path></svg>