<?xml version="1.0" standalone="no"?><!DOCTYPE svg PUBLIC "-//W3C//DTD SVG 1.1//EN" "http://www.w3.org/Graphics/SVG/1.1/DTD/svg11.dtd"><svg t="1586003510366" class="icon" viewBox="0 0 1024 1024" version="1.1" xmlns="http://www.w3.org/2000/svg" p-id="2583" xmlns:xlink="http://www.w3.org/1999/xlink" width="128" height="128"><defs><style type="text/css"></style></defs><path d="M727.04 367.36l37.76 37.76 152.96-152.96-37.76-37.76-152.96 152.96z m-43.52 55.04l-10.24 38.4 38.4-10.24-28.16-28.16z m222.08-233.6l30.08 30.08V172.8l-7.04-7.04-23.04 23.04z m-229.12 178.56L928.64 115.2l7.04 7.04v-29.44c0-49.92-39.68-89.6-89.6-89.6H184.32c-49.92 0-89.6 39.68-89.6 89.6v840.96c0 49.92 39.68 89.6 89.6 89.6h661.76c49.92 0 89.6-39.68 89.6-89.6l0.64-648.32-170.88 170.88-88.96-88.96zM195.84 289.28h254.08c14.08 0 25.6 4.48 25.6 18.56s-10.24 20.48-25.6 20.48H195.84c-14.08 0-25.6-6.4-25.6-20.48s11.52-18.56 25.6-18.56z m0 192h343.68c14.08 0.64 25.6 5.12 25.6 18.56 0 14.08-10.24 20.48-25.6 20.48H195.84c-14.08 0-25.6-6.4-25.6-20.48s11.52-18.56 25.6-18.56z m533.76 209.28c0 14.08-10.24 21.12-25.6 21.12H195.84c-14.08 0-25.6-6.4-25.6-21.12 0-14.08 11.52-17.92 25.6-17.92h509.44c12.8 0 24.32 3.84 24.32 17.92zM639.36 494.08l32-117.76 86.4 86.4-118.4 31.36z m296.96-371.84V172.8l30.72 30.72-23.04 23.04-7.68-7.68v65.92L1017.6 203.52l-81.28-81.28z" fill="#dbdbdb" p-id="2584"></path></svg>