<?xml version="1.0" standalone="no"?><!DOCTYPE svg PUBLIC "-//W3C//DTD SVG 1.1//EN" "http://www.w3.org/Graphics/SVG/1.1/DTD/svg11.dtd"><svg t="1586002662104" class="icon" viewBox="0 0 1024 1024" version="1.1" xmlns="http://www.w3.org/2000/svg" p-id="12251" xmlns:xlink="http://www.w3.org/1999/xlink" width="128" height="128"><defs><style type="text/css"></style></defs><path d="M935.879111 0H88.177778C55.296 0 28.444444 26.339556 28.444444 58.538667V965.404444C28.444444 997.660444 55.296 1024 88.120889 1024H935.822222c32.824889 0 59.676444-26.339556 59.676445-58.538667V58.595556C995.555556 26.339556 968.704 0 935.879111 0z m-538.168889 726.186667l-59.050666 57.912889-26.225778 25.713777a37.376 37.376 0 0 1-26.225778 10.581334 37.376 37.376 0 0 1-26.282667-10.581334l-26.225777-25.713777-23.324445-22.812445a36.238222 36.238222 0 0 1 26.282667-62.008889c9.557333 0 19.114667 3.470222 26.282666 10.524445l23.267556 22.755555 59.050667-57.912889a37.376 37.376 0 0 1 26.225777-10.524444 36.238222 36.238222 0 0 1 26.225778 62.008889z m0-252.814223L338.716444 531.342222l-26.225777 25.770667a37.376 37.376 0 0 1-26.225778 10.524444 37.376 37.376 0 0 1-26.282667-10.524444l-26.225778-25.770667-23.324444-22.755555a36.238222 36.238222 0 0 1 26.282667-62.065778c9.557333 0 19.114667 3.527111 26.282666 10.524444l23.267556 22.812445 59.050667-57.912889a37.376 37.376 0 0 1 26.225777-10.524445 36.238222 36.238222 0 0 1 26.225778 62.008889z m0-231.139555L338.716444 300.202667l-26.225777 25.713777a37.376 37.376 0 0 1-26.225778 10.524445 37.376 37.376 0 0 1-26.282667-10.524445l-26.225778-25.713777-23.324444-22.869334a36.238222 36.238222 0 0 1 26.282667-62.008889c9.557333 0 19.114667 3.527111 26.282666 10.524445l23.267556 22.812444 59.050667-57.912889a37.376 37.376 0 0 1 26.225777-10.524444 36.238222 36.238222 0 0 1 26.225778 62.008889z m389.632 536.576H519.395556a37.091556 37.091556 0 0 1-37.546667-36.864c0-20.48 16.668444-36.864 37.546667-36.864h267.889777c20.878222 0 37.546667 16.384 37.546667 36.864 0 20.48-16.668444 36.864-37.546667 36.864z m0-252.757333H519.395556a37.091556 37.091556 0 0 1-37.546667-36.864c0-20.48 16.668444-36.864 37.546667-36.864h267.889777c20.878222 0 37.546667 16.384 37.546667 36.864 0 20.48-16.668444 36.864-37.546667 36.864z m0-231.139556H519.395556a37.091556 37.091556 0 0 1-37.546667-36.864c0-20.48 16.668444-36.864 37.546667-36.864h267.889777c20.878222 0 37.546667 16.384 37.546667 36.864 0 20.48-16.668444 36.864-37.546667 36.864z" p-id="12252" fill="#dbdbdb"></path></svg>