<?xml version="1.0" standalone="no"?><!DOCTYPE svg PUBLIC "-//W3C//DTD SVG 1.1//EN" "http://www.w3.org/Graphics/SVG/1.1/DTD/svg11.dtd"><svg t="1586002135223" class="icon" viewBox="0 0 1024 1024" version="1.1" xmlns="http://www.w3.org/2000/svg" p-id="3903" xmlns:xlink="http://www.w3.org/1999/xlink" width="128" height="128"><defs><style type="text/css"></style></defs><path d="M665.6 665.088c0.512 8.192 5.12 33.792 17.92 32.256 5.632-0.512 14.336-5.12 23.04-10.24-8.192 5.12-16.896 9.216-23.04 10.24-5.12 0.512-9.216-3.584-11.776-8.704 2.56 5.12 6.656 9.216 11.776 8.704 13.824-1.536 40.448-20.992 49.664-31.744l39.936-44.544c16.384-22.528 46.592-74.24 47.104-104.448v-1.536c0-1.024 0-2.048-0.512-3.072 0-0.512 0-1.024-0.512-1.536 0-1.536-0.512-3.584-1.536-5.632l1.536 6.144c-0.512-4.096-2.048-9.216-4.608-13.312-0.512-0.512-0.512-1.536-1.024-2.048-0.512-1.024-1.024-1.536-2.048-2.56-3.072-3.584-7.168-5.632-12.288-5.12-4.096 0.512-7.168 2.048-10.24 4.608l-8.704 8.704c-3.072 3.072-5.12 5.632-6.656 5.632h-0.512c1.536-0.512 4.096-2.56 6.656-5.632-3.072 3.072-5.12 5.632-6.656 5.632-1.536 0-2.56-1.024-3.584-2.56-1.024-1.536-1.024-3.584-1.024-4.608h-0.512c-73.728 50.688-102.912 114.688-102.4 160.256v5.12zM580.608 633.856c-1.024 2.56-2.56 5.632-3.584 8.192 1.024-2.56 2.048-5.632 3.584-8.192zM577.024 642.048c-1.536 3.072-3.072 6.144-4.608 8.704 1.536-2.56 3.072-5.632 4.608-8.704zM580.608 633.856zM569.856 655.36c-2.048 3.584-4.096 7.68-6.144 11.264 2.048-3.584 4.096-7.168 6.144-11.264zM572.416 650.752c-1.024 1.536-1.536 3.072-2.56 4.608 1.024-1.536 2.048-3.072 2.56-4.608z" p-id="3904" fill="#dbdbdb"></path><path d="M898.048 0H125.952C56.832 0 0 56.832 0 125.952v772.096C0 967.168 56.832 1024 125.952 1024h772.096c69.12 0 125.952-56.832 125.952-125.952V125.952C1024 56.832 967.168 0 898.048 0z m-102.912 429.056h0.512c0-0.512 0-0.512-0.512 0 13.312-0.512 27.648 7.68 35.84 15.872 3.584 3.584 6.144 7.68 6.656 10.752 0.512 4.608-10.24 5.632-12.8 9.216 20.992 4.096 25.6 25.6 27.648 43.52 9.216 84.992-56.32 208.896-163.84 227.84-4.096 0.512-7.68 1.024-10.752 1.024-35.328-0.512-59.392-34.304-62.976-68.608-5.632-49.664 20.992-108.032 50.176-147.456 5.632-7.168 11.776-14.848 18.944-21.504l3.072-3.072 1.024-1.024c35.84-35.328 82.944-63.488 106.496-66.048h0.512z m-69.632-150.016c13.824 0 24.576 11.264 25.088 24.576 0 6.144-3.072 13.312-7.168 17.408-4.608 4.608-11.264 7.168-17.408 7.168H225.28c-13.824 0-24.576-11.264-25.088-24.576 0-6.144 3.072-13.312 7.168-17.408 4.608-4.608 11.264-7.168 17.408-7.168h500.736z m-144.896 354.816c3.072-7.68 6.144-15.36 8.704-23.04-20.992 69.12-77.312 138.24-155.648 152.576-4.096 0.512-7.168 1.024-11.264 1.024-35.328-0.512-59.392-34.304-62.976-68.608-5.632-49.664 20.992-108.032 50.176-147.456 20.992-27.648 52.224-53.76 80.384-70.656 0 0 0.512-0.512 1.024-0.512s0.512 0 1.024-0.512l2.56-1.536c6.144-3.072 11.264-6.144 16.384-8.704h0.512s0.512 0 0.512-0.512l3.072-1.536c0.512-0.512 0.512-0.512 1.024-0.512l2.048-1.024 2.048-1.024c0.512 0 0.512-0.512 1.024-0.512 7.168-3.072 13.824-4.608 18.944-5.12h1.024c18.432-1.536 42.496 16.896 43.52 26.624 0 1.536-1.536 3.072-3.072 4.096-3.584 1.536-8.192 3.072-10.24 5.12 4.096 0.512 7.168 2.048 10.24 4.096 12.288 8.192 15.872 25.088 17.408 39.424 2.048 29.696-4.096 64.512-18.432 98.304z m14.336-45.056c-1.536 6.656-3.072 13.824-5.12 20.48 2.048-7.168 3.584-13.824 5.12-20.48zM204.8 146.432c4.608-4.608 11.264-7.168 17.408-7.168h298.496c13.824 0 24.576 11.264 25.088 24.576 0 6.144-3.072 13.312-7.168 17.408-4.608 4.608-11.264 7.168-17.408 7.168H222.208c-13.824 0-24.064-11.264-25.088-24.576 0-6.144 3.072-12.8 7.68-17.408z m-46.592 614.912c-0.512-1.536-0.512-3.072-0.512-4.608v-0.512c0 1.536 0 3.072 0.512 4.096 0-1.536-0.512-3.072-0.512-4.608 0-24.064 12.288-69.12 22.016-89.088 27.136-57.344 58.368-108.032 69.632-125.952l-1.024-0.512-40.96 20.48 40.96-20.992-40.96 20.48c-2.048 1.536-9.728 5.632-11.776 5.632-4.096 0.512-4.608-4.608-4.608-7.68v-2.048c-0.512-12.8 8.192-17.408 18.432-25.088 13.824-10.24 61.44-45.056 74.24-46.08 11.264-1.536 23.552 21.504 24.064 28.16 0.512 1.536 0.512 3.072 0.512 4.608 0 10.24-6.656 22.528-56.832 132.096-3.072 7.168-7.68 16.384-12.288 27.136-9.216 20.48-18.944 46.08-24.064 67.072-2.048 8.704-3.584 16.384-3.584 23.04 0 2.048 0 4.096 0.512 6.144 0 0.512 0 0.512 0.512 1.024 0.512 4.608 2.048 8.704 2.56 13.312 0 0.512 0 0.512 0.512 1.024v1.536c0 0.512-0.512 0.512 0 1.024v0.512c-0.512 2.56-2.048 4.096-5.632 4.608-2.048 0.512-7.68-2.048-9.728-3.072-19.968-7.68-39.424-8.704-41.984-31.744z m29.184 145.408h-1.024 0.512-0.512c-1.024 0-2.048 0-2.56-0.512-4.096-2.048-6.144-4.096-6.144-6.144-0.512-4.096 6.144-8.192 6.144-8.192s202.24-96.256 577.024-118.272c0 0-32.768 4.096-50.688 7.168 0 0 66.048-5.632 103.424-7.168 0 0-312.32 24.576-583.168 118.272 0 0-3.584 1.536-8.704 3.584-10.24 4.608-26.624 10.752-34.304 11.264z m95.232 12.288s-39.936 17.408-46.08 14.336c-4.096-2.048-6.144-4.096-6.144-6.144-0.512-4.096 6.144-8.192 6.144-8.192s201.728-96.256 577.024-118.272c0 0-32.256 4.096-50.176 7.168h-0.512 0.512s2.048 0 6.144-0.512c16.896-1.536 65.024-5.12 95.232-6.656h1.536c-11.264 0.512-317.952 25.6-583.68 118.272z" p-id="3905" fill="#dbdbdb"></path><path d="M555.52 517.12c-2.048-1.536-4.608-2.56-7.168-3.072h-2.048c-11.264 1.536-21.504 18.944-26.112 18.944-1.024 0-1.536 0-2.048-0.512 0.512 0 1.024 0.512 2.048 0-1.024 0-2.048-0.512-2.56-1.024-1.536-1.536-2.048-4.608-2.048-6.144h-0.512c-75.264 52.736-104.448 118.272-102.4 163.84v1.536c0.512 4.096 1.536 12.8 4.096 19.968 0.512 2.048 1.536 3.584 2.048 5.12 0.512 1.536 1.536 2.048 2.048 3.072l-0.512-0.512c2.048 3.072 5.12 4.608 8.704 4.096 6.656-0.512 16.896-6.144 26.624-12.288l2.048-1.536c2.048-1.024 3.584-2.56 5.12-3.584 1.024-1.024 2.048-1.536 3.072-2.048 3.072-2.56 6.144-5.12 8.704-7.168l4.096-4.096 39.936-44.544c16.896-23.04 48.128-77.824 47.104-107.52v-2.048c-0.512-4.608-2.048-10.752-5.12-15.36l-5.12-5.12zM555.52 517.12z" p-id="3906" fill="#dbdbdb"></path><path d="M555.52 517.12c-1.024-0.512-2.048-1.536-3.072-2.048 1.024 1.024 2.048 1.536 3.072 2.048z" p-id="3907" fill="#dbdbdb"></path></svg>