<?xml version="1.0" standalone="no"?><!DOCTYPE svg PUBLIC "-//W3C//DTD SVG 1.1//EN" "http://www.w3.org/Graphics/SVG/1.1/DTD/svg11.dtd"><svg t="1587375843143" class="icon" viewBox="0 0 1024 1024" version="1.1" xmlns="http://www.w3.org/2000/svg" p-id="1989" xmlns:xlink="http://www.w3.org/1999/xlink" width="128" height="128"><defs><style type="text/css"></style></defs><path d="M927.288889 386.844444v145.066667l34.133333 39.822222-68.266666 59.733334-62.577778-59.733334 36.977778-39.822222v-119.466667c-199.111111 82.488889-253.155556 105.244444-295.822223 125.155556-36.977778 19.911111-82.488889 19.911111-119.466666 2.844444-42.666667-17.066667-241.777778-91.022222-344.177778-139.377777-68.266667-34.133333-73.955556-54.044444 0-82.488889 96.711111-36.977778 247.466667-93.866667 332.8-128 54.044444-19.911111 79.644444-31.288889 128-8.533334 82.488889 34.133333 261.688889 105.244444 355.555555 142.222223 79.644444 36.977778 25.6 48.355556 2.844445 62.577777zM583.111111 597.333333c48.355556-19.911111 113.777778-51.2 182.044445-82.488889v241.777778c-68.266667 62.577778-159.288889 96.711111-250.311112 96.711111-96.711111 2.844444-193.422222-31.288889-267.377777-96.711111v-224.711111c54.044444 22.755556 116.622222 39.822222 190.577777 65.422222 48.355556 19.911111 99.555556 19.911111 145.066667 0z" p-id="1990" fill="#cdcdcd"></path></svg>