<?xml version="1.0" standalone="no"?><!DOCTYPE svg PUBLIC "-//W3C//DTD SVG 1.1//EN" "http://www.w3.org/Graphics/SVG/1.1/DTD/svg11.dtd"><svg t="1586002617566" class="icon" viewBox="0 0 1024 1024" version="1.1" xmlns="http://www.w3.org/2000/svg" p-id="10808" xmlns:xlink="http://www.w3.org/1999/xlink" width="128" height="128"><defs><style type="text/css"></style></defs><path d="M213.333333 256H42.666667c-21.333333 0-42.666667 21.333333-42.666667 42.666667v682.666666c0 21.333333 21.333333 42.666667 42.666667 42.666667h170.666666c21.333333 0 42.666667-21.333333 42.666667-42.666667V298.666667c0-21.333333-21.333333-42.666667-42.666667-42.666667zM597.333333 0h-170.666666c-21.333333 0-42.666667 21.333333-42.666667 42.666667v938.666666c0 21.333333 21.333333 42.666667 42.666667 42.666667h170.666666c21.333333 0 42.666667-21.333333 42.666667-42.666667V42.666667c0-21.333333-21.333333-42.666667-42.666667-42.666667zM981.333333 426.666667h-170.666666c-21.333333 0-42.666667 21.333333-42.666667 42.666666v512c0 21.333333 21.333333 42.666667 42.666667 42.666667h170.666666c21.333333 0 42.666667-21.333333 42.666667-42.666667V469.333333c0-21.333333-21.333333-42.666667-42.666667-42.666666z" p-id="10809" fill="#dbdbdb"></path></svg>